# File created by Blade
# Date/Time:  Wed Jan 21 17:21:31 2015
# Frame Rate: 120.000 fps
#------------------------------------------------------
:FULLY-SPECIFIED
:DEGREES
582
root 21.232468 15.475179 -22.764093 -155.953327 18.672945 -210.341566
Spine 29.342204 33.950185 -31.047778
Head 7.905284 -10.996812 -5.936931
LeftShoulder -4.481801 -17.724646 -8.983741
LeftArm -28.063302 42.657352 -77.112733
LeftForeArm 4.553856 0.000000 3.469316
LeftHand -1.268174 0.000000 -19.599355
LeftHandThumb1 -26.253704 0.000000 33.147579
RightShoulder 14.998050 -4.229963 -4.528429
RightArm 36.681409 13.656608 62.708577
RightForeArm -8.344772 -0.000000 4.270785
RightHand -4.559404 -0.000000 2.365814
RightHandThumb1 -24.326973 -0.000000 -32.862282
LeftUpLeg -119.806616 -3.167005 -43.644382
LeftLeg 111.893050 -0.000000 -0.000000
LeftFoot -37.565543 22.785514 -7.762383
LeftToeBase 23.339578 -0.000000 -0.000000
RightUpLeg 11.812113 -19.085134 -23.411843
RightLeg 139.103419 -0.000000 -0.000000
RightFoot 46.763552 -25.455241 -2.372995
RightToeBase 26.615477 -0.000000 -0.000000
583
root 21.182942 15.462057 -22.789969 -156.020913 18.719925 -210.255148
Spine 29.311342 33.941689 -30.663892
Head 7.914669 -11.096704 -6.218902
LeftShoulder -4.421728 -17.380125 -8.839617
LeftArm -28.424254 42.984163 -77.934178
LeftForeArm 3.965353 -0.000000 3.898560
LeftHand -1.369507 -0.000000 -19.522544
LeftHandThumb1 -26.253704 0.000000 33.147579
RightShoulder 14.766476 -4.210265 -4.335950
RightArm 36.643705 13.726950 62.607446
RightForeArm -8.757940 -0.000000 4.256598
RightHand -4.589840 -0.000000 2.402130
RightHandThumb1 -24.326973 -0.000000 -32.862282
LeftUpLeg -119.792283 -3.201660 -43.643995
LeftLeg 111.994404 -0.000000 -0.000000
LeftFoot -37.636809 22.898243 -7.749422
LeftToeBase 23.424352 -0.000000 -0.000000
RightUpLeg 11.933546 -18.862183 -23.525899
RightLeg 139.253884 -0.000000 -0.000000
RightFoot 46.906895 -25.267055 -2.401048
RightToeBase 26.256096 -0.000000 -0.000000
584
root 21.135468 15.447011 -22.816867 -156.093529 18.752576 -210.148887
Spine 29.252908 33.862106 -30.291443
Head 7.937968 -11.057212 -6.495332
LeftShoulder -4.405404 -17.198691 -8.645999
LeftArm -29.056212 43.338433 -78.981300
LeftForeArm 3.445868 0.000000 4.308386
LeftHand -1.499802 -0.000000 -19.422858
LeftHandThumb1 -26.253704 0.000000 33.147579
RightShoulder 14.663707 -4.212291 -4.161988
RightArm 36.559869 13.821729 62.518272
RightForeArm -9.100560 -0.000000 4.299715
RightHand -4.645548 -0.000000 2.371977
RightHandThumb1 -24.326973 -0.000000 -32.862282
LeftUpLeg -119.779803 -3.221758 -43.639204
LeftLeg 112.112077 -0.000000 -0.000000
LeftFoot -37.716021 22.997766 -7.759469
LeftToeBase 23.279242 -0.000000 -0.000000
RightUpLeg 12.071817 -18.702067 -23.637564
RightLeg 139.369292 -0.000000 -0.000000
RightFoot 47.085069 -25.439542 -2.394422
RightToeBase 26.032080 -0.000000 -0.000000
585
root 21.087928 15.424566 -22.842149 -156.075861 18.791320 -209.926050
Spine 29.113916 33.882090 -29.788004
Head 7.979131 -11.149244 -6.798677
LeftShoulder -4.312312 -16.959422 -8.492124
LeftArm -29.715213 43.763439 -80.088059
LeftForeArm 2.745477 -0.000000 4.683285
LeftHand -1.591404 -0.000000 -19.314320
LeftHandThumb1 -26.253704 0.000000 33.147579
RightShoulder 14.446474 -4.182874 -3.959772
RightArm 36.379024 13.850376 62.415303
RightForeArm -9.441819 0.000000 4.350276
RightHand -4.640016 0.000000 2.218001
RightHandThumb1 -24.326973 -0.000000 -32.862282
LeftUpLeg -119.885906 -3.264632 -43.529596
LeftLeg 112.273216 -0.000000 -0.000000
LeftFoot -37.775539 23.107586 -7.768277
LeftToeBase 23.203396 -0.000000 -0.000000
RightUpLeg 12.139433 -18.474052 -23.598616
RightLeg 139.526643 -0.000000 -0.000000
RightFoot 47.205465 -25.395477 -2.392003
RightToeBase 25.797975 -0.000000 -0.000000
586
root 21.035034 15.403749 -22.868339 -156.132023 18.816440 -209.739343
Spine 29.023284 33.789921 -29.296930
Head 8.047082 -11.039681 -7.162974
LeftShoulder -4.321513 -16.790768 -8.322891
LeftArm -30.440203 44.113474 -81.225780
LeftForeArm 2.178632 -0.000000 5.066952
LeftHand -1.628879 -0.000000 -19.296726
LeftHandThumb1 -26.253704 0.000000 33.147579
RightShoulder 14.381534 -4.132569 -3.763721
RightArm 36.160609 13.924399 62.291008
RightForeArm -9.814527 -0.000000 4.421656
RightHand -4.665899 -0.000000 2.015842
RightHandThumb1 -24.326973 -0.000000 -32.862282
LeftUpLeg -119.905472 -3.295172 -43.451867
LeftLeg 112.413500 -0.000000 -0.000000
LeftFoot -37.778005 23.224327 -7.670453
LeftToeBase 23.046127 -0.000000 -0.000000
RightUpLeg 12.292777 -18.187001 -23.621323
RightLeg 139.701295 -0.000000 -0.000000
RightFoot 47.204297 -25.323233 -2.260872
RightToeBase 26.002386 -0.000000 -0.000000
587
root 20.983139 15.380477 -22.895176 -156.136655 18.858107 -209.494522
Spine 28.867521 33.769932 -28.768220
Head 8.147438 -11.008534 -7.515615
LeftShoulder -4.255329 -16.675181 -8.157460
LeftArm -31.307871 44.394602 -82.465283
LeftForeArm 1.598481 -0.000000 5.480632
LeftHand -1.749022 -0.000000 -19.098959
LeftHandThumb1 -26.253704 0.000000 33.147579
RightShoulder 14.255918 -4.150018 -3.533063
RightArm 35.973384 13.988456 62.121966
RightForeArm -10.173886 -0.000000 4.489012
RightHand -4.708334 0.000000 1.842940
RightHandThumb1 -24.326973 -0.000000 -32.862282
LeftUpLeg -119.994752 -3.320049 -43.344779
LeftLeg 112.578672 -0.000000 -0.000000
LeftFoot -37.853556 23.334467 -7.678612
LeftToeBase 22.984698 -0.000000 -0.000000
RightUpLeg 12.397809 -17.920960 -23.591619
RightLeg 139.879170 -0.000000 -0.000000
RightFoot 47.337022 -25.360392 -2.299832
RightToeBase 25.696104 -0.000000 -0.000000
588
root 20.927627 15.353809 -22.922240 -156.129630 18.869902 -209.253105
Spine 28.671381 33.718610 -28.235891
Head 8.291695 -10.909096 -7.799308
LeftShoulder -4.204012 -16.448579 -7.953092
LeftArm -32.036723 44.497712 -83.561080
LeftForeArm 1.317380 -0.000000 6.004541
LeftHand -1.709992 -0.000000 -18.955928
LeftHandThumb1 -26.253704 0.000000 33.147579
RightShoulder 14.120976 -4.238588 -3.303906
RightArm 35.799038 13.941811 61.864672
RightForeArm -10.419709 -0.000000 4.573583
RightHand -4.814481 -0.000000 1.631021
RightHandThumb1 -24.326973 -0.000000 -32.862282
LeftUpLeg -120.081010 -3.380767 -43.232911
LeftLeg 112.745390 -0.000000 -0.000000
LeftFoot -37.932651 23.469453 -7.665497
LeftToeBase 22.929485 -0.000000 -0.000000
RightUpLeg 12.530372 -17.628830 -23.545102
RightLeg 140.115669 -0.000000 -0.000000
RightFoot 47.126419 -25.227481 -2.271766
RightToeBase 25.671610 -0.000000 -0.000000
589
root 20.869481 15.326125 -22.952020 -156.114558 18.905676 -208.989090
Spine 28.460258 33.678997 -27.673917
Head 8.396434 -10.889265 -8.179497
LeftShoulder -4.161959 -16.249804 -7.770951
LeftArm -32.924120 44.685396 -84.766279
LeftForeArm 0.929975 -0.000000 6.696598
LeftHand -1.752398 -0.000000 -18.745558
LeftHandThumb1 -26.253704 0.000000 33.147579
RightShoulder 13.959146 -4.325621 -3.075445
RightArm 35.682030 14.036941 61.704744
RightForeArm -10.923554 0.000000 4.610475
RightHand -4.846192 0.000000 1.515242
RightHandThumb1 -24.326973 -0.000000 -32.862282
LeftUpLeg -120.193737 -3.427922 -43.120209
LeftLeg 112.931848 -0.000000 -0.000000
LeftFoot -38.040971 23.587447 -7.695916
LeftToeBase 22.893042 -0.000000 -0.000000
RightUpLeg 12.632889 -17.327463 -23.510162
RightLeg 140.328647 -0.000000 -0.000000
RightFoot 47.148453 -25.196486 -2.404136
RightToeBase 25.476274 -0.000000 -0.000000
590
root 20.815003 15.299918 -22.983635 -156.179538 18.934326 -208.794237
Spine 28.326885 33.501689 -27.244461
Head 8.322772 -10.687552 -8.488075
LeftShoulder -4.328703 -16.016053 -7.435233
LeftArm -33.731987 44.940722 -86.026387
LeftForeArm 0.568735 -0.000000 7.524113
LeftHand -1.853347 0.000000 -18.478038
LeftHandThumb1 -26.253704 0.000000 33.147579
RightShoulder 13.940058 -4.285739 -2.884209
RightArm 35.550984 14.113670 61.580624
RightForeArm -11.438585 -0.000000 4.621689
RightHand -4.839002 -0.000000 1.533650
RightHandThumb1 -24.326973 -0.000000 -32.862282
LeftUpLeg -120.223039 -3.425999 -43.092288
LeftLeg 113.101376 -0.000000 -0.000000
LeftFoot -38.121159 23.681175 -7.677516
LeftToeBase 22.890711 -0.000000 -0.000000
RightUpLeg 12.817434 -17.038991 -23.542016
RightLeg 140.573842 -0.000000 -0.000000
RightFoot 47.044587 -25.065247 -2.650573
RightToeBase 25.617653 -0.000000 -0.000000
591
root 20.756683 15.267229 -23.016647 -156.176806 18.940598 -208.550849
Spine 28.094447 33.354062 -26.761557
Head 8.308213 -10.550960 -8.760778
LeftShoulder -4.471845 -15.751652 -7.102123
LeftArm -34.597062 45.215481 -87.303660
LeftForeArm 0.236823 -0.000000 8.421158
LeftHand -1.999486 -0.000000 -18.283694
LeftHandThumb1 -26.253704 0.000000 33.147579
RightShoulder 13.820727 -4.356646 -2.642813
RightArm 35.472638 14.075158 61.317908
RightForeArm -11.779501 0.000000 4.598234
RightHand -4.832527 -0.000000 1.554532
RightHandThumb1 -24.326973 -0.000000 -32.862282
LeftUpLeg -120.311761 -3.489429 -43.012388
LeftLeg 113.305349 -0.000000 -0.000000
LeftFoot -38.218366 23.795902 -7.665205
LeftToeBase 22.799423 -0.000000 -0.000000
RightUpLeg 12.974087 -16.765132 -23.523916
RightLeg 140.793922 -0.000000 -0.000000
RightFoot 47.124062 -24.994277 -2.901376
RightToeBase 25.400924 -0.000000 -0.000000
592
root 20.692627 15.238407 -23.052135 -156.174057 18.929998 -208.363947
Spine 27.835668 33.164621 -26.305963
Head 8.368948 -10.399054 -9.095201
LeftShoulder -4.573886 -15.395577 -6.808826
LeftArm -35.535476 45.614492 -88.618797
LeftForeArm -0.290731 0.000000 9.470230
LeftHand -2.168319 -0.000000 -18.147961
LeftHandThumb1 -26.253704 0.000000 33.147579
RightShoulder 13.706479 -4.517454 -2.403337
RightArm 35.438578 14.131037 61.072826
RightForeArm -12.145912 -0.000000 4.624682
RightHand -4.864935 -0.000000 1.622360
RightHandThumb1 -24.326973 -0.000000 -32.862282
LeftUpLeg -120.356975 -3.592008 -42.981734
LeftLeg 113.470159 -0.000000 -0.000000
LeftFoot -38.318605 23.915313 -7.646070
LeftToeBase 22.848750 -0.000000 -0.000000
RightUpLeg 13.141150 -16.442329 -23.537792
RightLeg 141.043805 -0.000000 -0.000000
RightFoot 47.074083 -24.759749 -3.066666
RightToeBase 25.316104 -0.000000 -0.000000
593
root 20.629684 15.207335 -23.086246 -156.119626 18.932653 -208.143970
Spine 27.503314 33.083354 -25.836163
Head 8.470532 -10.404972 -9.366563
LeftShoulder -4.605638 -15.106061 -6.484606
LeftArm -36.625967 46.090559 -90.084729
LeftForeArm -0.875239 -0.000000 10.464836
LeftHand -2.276384 -0.000000 -18.154600
LeftHandThumb1 -26.253704 0.000000 33.147579
RightShoulder 13.554899 -4.561390 -2.141909
RightArm 35.191401 14.185665 60.821448
RightForeArm -12.460564 -0.000000 4.691312
RightHand -4.850391 -0.000000 1.782805
RightHandThumb1 -24.326973 -0.000000 -32.862282
LeftUpLeg -120.466025 -3.696217 -42.956885
LeftLeg 113.661204 -0.000000 -0.000000
LeftFoot -38.430967 23.999646 -7.624523
LeftToeBase 22.901254 -0.000000 -0.000000
RightUpLeg 13.251116 -16.130532 -23.513661
RightLeg 141.302949 -0.000000 -0.000000
RightFoot 47.091513 -24.679560 -3.186540
RightToeBase 25.001122 -0.000000 -0.000000
